<svg width="80" height="71" viewBox="0 0 80 71" fill="none" xmlns="http://www.w3.org/2000/svg">
<path d="M29.7945 -1.03985L17.1503 52.1235L14.8513 39.7667C19.4492 39.7667 23.185 41.2035 26.0587 44.0772C28.9324 46.7593 30.3693 50.3993 30.3693 54.9972C30.3693 59.5952 28.9324 63.331 26.0587 66.2047C23.185 69.0784 19.6408 70.5152 15.426 70.5152C10.8281 70.5152 7.09231 69.0784 4.21861 66.2047C1.5365 63.1394 0.195438 59.4036 0.195438 54.9972C0.195438 53.273 0.291228 51.7404 0.482807 50.3993C0.674388 49.0583 1.05755 47.4298 1.63229 45.514C2.20703 43.5982 2.97335 41.2993 3.93124 38.6172L16.0008 -1.03985H29.7945ZM78.6474 -1.03985L66.0031 52.1235L63.7041 39.7667C68.3021 39.7667 72.0379 41.2035 74.9116 44.0772C77.7853 46.7593 79.2221 50.3993 79.2221 54.9972C79.2221 59.5952 77.7853 63.331 74.9116 66.2047C72.0379 69.0784 68.4936 70.5152 64.2789 70.5152C59.681 70.5152 55.9452 69.0784 53.0715 66.2047C50.3893 63.1394 49.0483 59.4036 49.0483 54.9972C49.0483 53.273 49.1441 51.7404 49.3357 50.3993C49.5272 49.0583 49.9104 47.4298 50.4851 45.514C51.0599 43.5982 51.8262 41.2993 52.7841 38.6172L64.8536 -1.03985H78.6474Z" fill="white"/>
</svg>
